Coordinates
version=1
nRows=10
nColumns=63
inDegrees=yes

Units are S.I. units (second, meters, Newtons, ...)
If the header above contains a line with 'inDegrees', this indicates whether rotational values are in degrees (yes) or radians (no).

endheader
time	pelvis_tilt	pelvis_list	pelvis_rotation	pelvis_tx	pelvis_ty	pelvis_tz	hip_flexion_r	hip_adduction_r	hip_rotation_r	knee_angle_r	knee_angle_r_beta	ankle_angle_r	subtalar_angle_r	mtp_angle_r	hip_flexion_l	hip_adduction_l	hip_rotation_l	knee_angle_l	knee_angle_l_beta	ankle_angle_l	subtalar_angle_l	mtp_angle_l	L5_S1_Flex_Ext	L5_S1_Lat_Bending	L5_S1_axial_rotation	L4_L5_Flex_Ext	L4_L5_Lat_Bending	L4_L5_axial_rotation	L3_L4_Flex_Ext	L3_L4_Lat_Bending	L3_L4_axial_rotation	L2_L3_Flex_Ext	L2_L3_Lat_Bending	L2_L3_axial_rotation	L1_L2_Flex_Ext	L1_L2_Lat_Bending	L1_L2_axial_rotation	L1_T12_Flex_Ext	L1_T12_Lat_Bending	L1_T12_axial_rotation	Abs_r3	Abs_r2	Abs_r1	Abs_t1	Abs_t2	neck_flexion	neck_bending	neck_rotation	arm_flex_r	arm_add_r	arm_rot_r	elbow_flex_r	pro_sup_r	wrist_flex_r	wrist_dev_r	arm_flex_l	arm_add_l	arm_rot_l	elbow_flex_l	pro_sup_l	wrist_flex_l	wrist_dev_l
      0.00000000	      1.16268446	     -4.20040203	    109.01548917	      0.35179690	      0.50939104	      0.94267145	      7.27792247	     -3.52975264	     -4.26824054	      9.25114941	      0.16146302	     17.47491001	      9.27983589	      0.00000000	      5.23598531	      2.38871197	    -10.07965888	      6.22252258	      0.10860351	     17.42051193	      6.33700304	      0.00000000	      0.08199356	     -0.19594626	      0.24132893	      0.15227024	     -0.26060853	      0.25641199	      0.13470722	     -0.47642374	      0.25641199	      0.09371044	     -0.47642374	      0.21116281	      0.07613922	     -0.39957361	      0.19607975	      0.04685112	     -0.30352076	      0.18099670	      0.58567181	     -2.21658329	      1.34219910	      0.00000000	      0.00000000	     22.15632166	      1.75920500	      4.81104147	     24.11912518	    -22.34562906	     71.23464767	     68.35666396	     88.99153839	      8.38579769	    -19.54216312	     20.89913340	    -13.62328564	     56.76368226	     74.57647742	     89.24502160	      1.02559540	      2.76087093
      0.02040816	      1.89805119	     -4.20193103	    110.06920009	      0.35155511	      0.51077332	      0.93814042	      6.19717859	     -2.49203098	     -3.74085843	      6.80891798	      0.11883804	     17.79498463	      8.60743150	      0.00000000	      5.15374433	      1.46704857	     -9.84158725	      6.05134961	      0.10561597	     17.75010675	      7.98445398	      0.00000000	      0.10235665	     -0.15949674	     -0.05293604	      0.19008654	     -0.21213067	     -0.05624455	      0.16816175	     -0.38780038	     -0.05624455	      0.11698342	     -0.38780038	     -0.04631904	      0.09504839	     -0.32524576	     -0.04301053	      0.05848659	     -0.24706045	     -0.03970203	      0.73112334	     -1.80425905	     -0.29441439	      0.00000000	      0.00000000	     22.73279313	      2.57690612	      5.66318294	     23.17929110	    -21.90514527	     70.51514923	     71.26230513	     88.76232104	      8.89305515	    -15.21402393	     18.86435725	    -14.76318597	     54.08575544	     79.84750442	     89.22531300	      3.64776943	      6.68329669
      0.04081633	      2.39338754	     -4.11835877	    110.99229610	      0.35134325	      0.51184593	      0.93472191	      5.27980326	     -1.74714407	     -2.94163088	      5.26279572	      0.09185311	     17.45326763	      6.68368939	      0.00000000	      5.05204943	      0.78317973	     -9.67367946	      5.98691406	      0.10449136	     18.00347411	      9.39314657	      0.00000000	      0.11282961	     -0.14013704	     -0.23564384	      0.20953586	     -0.18638226	     -0.25037158	      0.18536776	     -0.34072920	     -0.25037158	      0.12895296	     -0.34072920	     -0.20618836	      0.10477357	     -0.28576745	     -0.19146062	      0.06447084	     -0.21707227	     -0.17673288	      0.80593060	     -1.58525821	     -1.31058033	      0.00000000	      0.00000000	     23.08812217	      3.13298458	      5.72922120	     21.74767034	    -21.57592801	     68.59233342	     73.62097049	     88.32597574	     10.26553589	    -10.30017091	     17.57448830	    -15.42299979	     52.83352164	     83.64911658	     89.21898064	      4.93420206	      9.48917941
      0.06122449	      2.65321806	     -4.01353091	    111.85301310	      0.35119282	      0.51271972	      0.93212257	      4.50445184	     -1.33062653	     -3.18438445	      4.41446870	      0.07704701	     16.88728898	      5.55810031	      0.00000000	      4.85576152	      0.38761274	     -9.16135162	      5.80420769	      0.10130253	     18.00969920	     10.12273514	      0.00000000	      0.12255498	     -0.14503729	     -0.37088877	      0.22759686	     -0.19289960	     -0.39406932	      0.20134558	     -0.35264367	     -0.39406932	      0.14006809	     -0.35264367	     -0.32452768	      0.11380456	     -0.29576005	     -0.30134713	      0.07002792	     -0.22466277	     -0.27816658	      0.87539798	     -1.64069086	     -2.06277209	      0.00000000	      0.00000000	     23.24922648	      3.69794696	      5.20047505	     20.34840906	    -21.19290825	     66.89437122	     74.96623528	     87.20271345	     10.33142973	     -7.88633425	     16.62129691	    -15.90459883	     52.41704033	     86.36420407	     89.23393685	      4.57423503	     10.91055300
      0.08163265	      2.81441207	     -3.95368473	    112.71126902	      0.35106427	      0.51311140	      0.93063090	      4.05396934	     -1.04153790	     -2.77327563	      4.25975397	      0.07434673	     16.04940342	      2.85851816	      0.00000000	      4.92251846	      0.09908245	     -8.72080703	      5.97085970	      0.10421116	     18.18204880	     10.87171844	      0.00000000	      0.14217295	     -0.15682304	     -0.43875499	      0.26402939	     -0.20857464	     -0.46617717	      0.23357594	     -0.38129953	     -0.46617717	      0.16248947	     -0.38129953	     -0.38391061	      0.13202180	     -0.31979353	     -0.35648843	      0.08123762	     -0.24291888	     -0.32906624	      1.01552717	     -1.77401354	     -2.44022361	      0.00000000	      0.00000000	     23.09557219	      3.84272057	      4.15079116	     18.82921285	    -20.97823636	     64.54136859	     76.36929546	     84.27953626	     11.70926787	     -3.08469649	     16.47767135	    -16.23468167	     52.91479480	     88.32682057	     89.24020220	      4.47435764	     12.79712419
      0.10204082	      2.84555498	     -3.74211552	    112.87376049	      0.35162362	      0.51362324	      0.92941284	      3.57696874	     -0.70151172	     -0.02672080	      4.28392803	      0.07476865	     14.34307341	     -2.62866513	      0.00000000	      4.67747479	     -0.11759168	     -8.76474348	      5.96909492	      0.10418036	     18.24923319	     11.24758929	      0.00000000	      0.14054439	     -0.16900883	     -0.37850767	      0.26100499	     -0.22478175	     -0.40216440	      0.23090038	     -0.41092807	     -0.40216440	      0.16062819	     -0.41092807	     -0.33119421	      0.13050952	     -0.34464281	     -0.30753748	      0.08030707	     -0.26179468	     -0.28388075	      1.00389455	     -1.91186170	     -2.10514612	      0.00000000	      0.00000000	     22.79267437	      3.90456514	      2.95469786	     17.85604688	    -21.00230554	     63.57776186	     77.41819491	     76.14644454	     10.88667587	      1.14273474	     16.40565420	    -16.37532163	     53.45719217	     89.36165313	     89.26675595	      4.05125581	     13.00830125
      0.12244898	      2.83758046	     -3.54865007	    112.96613324	      0.35203147	      0.51403700	      0.92895135	      3.39862809	     -0.59602792	     -0.50516800	      4.63460448	      0.08088911	     13.85167979	     -3.00239635	      0.00000000	      4.48784791	     -0.23564910	     -8.65863115	      5.99129354	      0.10456780	     18.37511310	     11.27923223	      0.00000000	      0.14059288	     -0.17269607	     -0.35483661	      0.26109504	     -0.22968578	     -0.37701389	      0.23098004	     -0.41989323	     -0.37701389	      0.16068360	     -0.41989323	     -0.31048203	      0.13055455	     -0.35216183	     -0.28830474	      0.08033477	     -0.26750622	     -0.26612745	      1.00424088	     -1.95357251	     -1.97349476	      0.00000000	      0.00000000	     22.38046280	      4.01176857	      2.54033829	     17.81551016	    -21.01633963	     63.34798249	     77.74623043	     75.55575915	     10.93282094	      1.31757602	     16.21458177	    -16.43369044	     53.47876338	     90.01969696	     89.29171001	      3.99704756	     13.05559888
      0.14285714	      2.80487243	     -3.43968565	    113.73219355	      0.35154095	      0.51419017	      0.92912548	      3.26084284	     -0.54737806	     -0.29983978	      4.94783568	      0.08635602	     13.26564233	     -4.96367648	      0.00000000	      4.60459061	     -0.24449831	     -7.69683022	      6.30004742	      0.10995657	     18.43721105	     11.04016534	      0.00000000	      0.14540234	     -0.20422963	     -0.39357747	      0.27002668	     -0.27162540	     -0.41817606	      0.23888150	     -0.49656391	     -0.41817606	      0.16618033	     -0.49656391	     -0.34438029	      0.13502061	     -0.41646505	     -0.31978169	      0.08308290	     -0.31635169	     -0.29518310	      1.03859437	     -2.31028637	     -2.18895981	      0.00000000	      0.00000000	     21.95655839	      3.65345155	     -0.34816911	     17.51117321	    -21.25715840	     63.26394936	     78.75908671	     65.41406871	      9.89497031	      5.44928086	     16.49777854	    -16.40810542	     54.18336882	     90.39471398	     89.31156775	      3.17421542	     13.91596659
      0.16326531	      2.77008695	     -3.36517732	    113.75301608	      0.35187247	      0.51436218	      0.92936003	      3.32111454	     -0.54005912	     -0.41126484	      5.19649153	      0.09069589	     13.10071227	     -5.05135990	      0.00000000	      4.55023294	     -0.26016040	     -7.65002543	      6.29941038	      0.10994545	     18.41631648	     11.04668474	      0.00000000	      0.13865962	     -0.21254491	     -0.38233385	      0.25750479	     -0.28268472	     -0.40622971	      0.22780390	     -0.51678168	     -0.40622971	      0.15847408	     -0.51678168	     -0.33454211	      0.12875933	     -0.43342157	     -0.31064625	      0.07923011	     -0.32923206	     -0.28675038	      0.99043183	     -2.40435048	     -2.12642615	      0.00000000	      0.00000000	     21.52902364	      3.78906450	     -0.49715142	     17.93516815	    -21.55986535	     63.31741429	     79.48553210	     65.25773825	      9.99523129	      5.43407675	     16.37074310	    -16.45421227	     54.03124997	     90.62883267	     89.33572859	      3.15420432	     13.79165672
      0.18367347	      2.95017858	     -3.25270462	    113.78852852	      0.35129480	      0.51442978	      0.93016359	      3.84911059	     -0.41740008	     -0.94572219	      6.08775173	      0.10625131	     13.84595006	     -4.36792708	      0.00000000	      4.58953031	     -0.37486540	     -7.01916449	      6.35665994	      0.11094465	     18.50270501	     10.05363909	      0.00000000	      0.14422511	     -0.18337617	     -0.47882886	      0.26784046	     -0.24389030	     -0.50875566	      0.23694744	     -0.44586082	     -0.50875566	      0.16483488	     -0.44586082	     -0.41897525	      0.13392744	     -0.37394068	     -0.38904845	      0.08241023	     -0.28404969	     -0.35912164	      1.03018557	     -2.07438789	     -2.66310246	      0.00000000	      0.00000000	     20.68469728	      3.84394645	     -0.47760119	     19.71457254	    -22.21339720	     65.12285017	     80.35684524	     60.71072586	     10.71764589	      6.84726234	     15.62935365	    -16.25875159	     53.04722041	     90.47963671	     89.37100915	      2.76223270	     12.69753232
